ISO-10303-21;
HEADER;
FILE_DESCRIPTION (( 'STEP AP214' ),
    '1' );
FILE_NAME ('展平条.STEP',
    '2025-02-28T10:18:05',
    ( 'Windows 用户' ),
    ( '' ),
    'SwSTEP 2.0',
    'SolidWorks 2024',
    '' );
FILE_SCHEMA (( 'AUTOMOTIVE_DESIGN' ));
ENDSEC;

DATA;
#1 = CARTESIAN_POINT ( 'NONE',  ( 60.50000000000000000, 5.000000000000000000, -8.673617379884035472E-16 ) ) ;
#2 = CARTESIAN_POINT ( 'NONE',  ( -65.00000000000000000, 0.000000000000000000, 4.499999999999999112 ) ) ;
#3 = AXIS2_PLACEMENT_3D ( 'NONE', #275, #278, #144 ) ;
#4 = DIRECTION ( 'NONE',  ( 0.000000000000000000, 1.000000000000000000, 0.000000000000000000 ) ) ;
#5 = VECTOR ( 'NONE', #766, 1000.000000000000000 ) ;
#6 = CARTESIAN_POINT ( 'NONE',  ( 59.99999999999997158, 2.000000000000000000, 1.749999999999979572 ) ) ;
#7 = LINE ( 'NONE', #603, #426 ) ;
#8 = CARTESIAN_POINT ( 'NONE',  ( -60.50000000000000711, 0.000000000000000000, -8.673617379884035472E-16 ) ) ;
#9 = EDGE_CURVE ( 'NONE', #41, #345, #518, .T. ) ;
#10 = FACE_OUTER_BOUND ( 'NONE', #734, .T. ) ;
#11 = DIRECTION ( 'NONE',  ( -0.000000000000000000, -1.000000000000000000, -0.000000000000000000 ) ) ;
#12 = DIRECTION ( 'NONE',  ( 0.000000000000000000, 0.000000000000000000, 1.000000000000000000 ) ) ;
#13 = DIRECTION ( 'NONE',  ( 0.000000000000000000, -1.000000000000000000, 0.000000000000000000 ) ) ;
#14 = CIRCLE ( 'NONE', #768, 3.100000000000001865 ) ;
#15 = AXIS2_PLACEMENT_3D ( 'NONE', #672, #314, #132 ) ;
#16 = DIRECTION ( 'NONE',  ( 0.000000000000000000, 0.000000000000000000, 1.000000000000000000 ) ) ;
#17 = CARTESIAN_POINT ( 'NONE',  ( -60.00000000000002842, 2.000000000000000000, -3.100000000000003642 ) ) ;
#18 = ADVANCED_FACE ( 'NONE', ( #231 ), #232, .T. ) ;
#19 = CARTESIAN_POINT ( 'NONE',  ( -35.50000000000001421, 5.000000000000000000, -4.500000000000000888 ) ) ;
#20 = VERTEX_POINT ( 'NONE', #648 ) ;
#21 = ORIENTED_EDGE ( 'NONE', *, *, #281, .F. ) ;
#22 = APPLICATION_CONTEXT ( 'automotive_design' ) ;
#23 = ORIENTED_EDGE ( 'NONE', *, *, #213, .T. ) ;
#24 = EDGE_CURVE ( 'NONE', #89, #775, #711, .T. ) ;
#25 = STYLED_ITEM ( 'NONE', ( #145 ), #692 ) ;
#26 = ORIENTED_EDGE ( 'NONE', *, *, #757, .F. ) ;
#27 = ORIENTED_EDGE ( 'NONE', *, *, #321, .F. ) ;
#28 = SURFACE_SIDE_STYLE ('',( #578 ) ) ;
#29 = EDGE_LOOP ( 'NONE', ( #23, #439 ) ) ;
#30 = FACE_BOUND ( 'NONE', #215, .T. ) ;
#31 = DIRECTION ( 'NONE',  ( -1.000000000000000000, 0.000000000000000000, -0.000000000000000000 ) ) ;
#32 = ADVANCED_FACE ( 'NONE', ( #767 ), #399, .F. ) ;
#33 = ORIENTED_EDGE ( 'NONE', *, *, #292, .F. ) ;
#34 = DIRECTION ( 'NONE',  ( 0.000000000000000000, 0.000000000000000000, 1.000000000000000000 ) ) ;
#35 = CARTESIAN_POINT ( 'NONE',  ( 35.50000000000000711, 5.000000000000000000, -8.673617379884035472E-16 ) ) ;
#36 = EDGE_LOOP ( 'NONE', ( #424, #438, #697, #575 ) ) ;
#37 = VECTOR ( 'NONE', #268, 1000.000000000000000 ) ;
#38 = CIRCLE ( 'NONE', #482, 4.500000000000000000 ) ;
#39 = LINE ( 'NONE', #586, #37 ) ;
#40 = LINE ( 'NONE', #635, #357 ) ;
#41 = VERTEX_POINT ( 'NONE', #117 ) ;
#42 = EDGE_LOOP ( 'NONE', ( #164, #371 ) ) ;
#43 = FACE_BOUND ( 'NONE', #42, .T. ) ;
#44 = ORIENTED_EDGE ( 'NONE', *, *, #542, .F. ) ;
#45 = CARTESIAN_POINT ( 'NONE',  ( 60.50000000000000000, 5.000000000000000000, -8.673617379884035472E-16 ) ) ;
#46 = UNCERTAINTY_MEASURE_WITH_UNIT (LENGTH_MEASURE( 1.000000000000000082E-05 ), #208, 'distance_accuracy_value', 'NONE');
#47 = EDGE_CURVE ( 'NONE', #201, #323, #333, .T. ) ;
#48 = CARTESIAN_POINT ( 'NONE',  ( 35.50000000000000000, 5.000000000000000000, -8.673617379884035472E-16 ) ) ;
#49 = VERTEX_POINT ( 'NONE', #180 ) ;
#50 = DIRECTION ( 'NONE',  ( 0.000000000000000000, -1.000000000000000000, 0.000000000000000000 ) ) ;
#51 = DIRECTION ( 'NONE',  ( -0.000000000000000000, -1.000000000000000000, -0.000000000000000000 ) ) ;
#52 = VECTOR ( 'NONE', #329, 1000.000000000000000 ) ;
#53 = CARTESIAN_POINT ( 'NONE',  ( -60.50000000000000711, 5.000000000000000000, -4.500000000000000888 ) ) ;
#54 = VECTOR ( 'NONE', #269, 1000.000000000000000 ) ;
#55 = ORIENTED_EDGE ( 'NONE', *, *, #115, .T. ) ;
#56 = PLANE ( 'NONE',  #496 ) ;
#57 = CARTESIAN_POINT ( 'NONE',  ( -60.00000000000002842, 5.000000000000000000, -1.902033137577125050E-15 ) ) ;
#58 = DIRECTION ( 'NONE',  ( 0.000000000000000000, 0.000000000000000000, -1.000000000000000000 ) ) ;
#59 = ORIENTED_EDGE ( 'NONE', *, *, #727, .F. ) ;
#60 = ADVANCED_FACE ( 'NONE', ( #466 ), #654, .F. ) ;
#61 = DIRECTION ( 'NONE',  ( 0.000000000000000000, -1.000000000000000000, 0.000000000000000000 ) ) ;
#62 = DIRECTION ( 'NONE',  ( -0.000000000000000000, -1.000000000000000000, -0.000000000000000000 ) ) ;
#63 = CARTESIAN_POINT ( 'NONE',  ( -35.50000000000001421, 5.000000000000000000, 4.499999999999999112 ) ) ;
#64 = AXIS2_PLACEMENT_3D ( 'NONE', #1, #370, #298 ) ;
#65 = AXIS2_PLACEMENT_3D ( 'NONE', #595, #477, #469 ) ;
#66 = CIRCLE ( 'NONE', #607, 3.100000000000001865 ) ;
#67 = CARTESIAN_POINT ( 'NONE',  ( 59.99999999999997158, 2.000000000000000000, -2.394567552222947617E-14 ) ) ;
#68 = DIRECTION ( 'NONE',  ( 0.000000000000000000, 1.000000000000000000, 0.000000000000000000 ) ) ;
#69 = DIRECTION ( 'NONE',  ( 0.000000000000000000, 0.000000000000000000, -1.000000000000000000 ) ) ;
#70 = EDGE_CURVE ( 'NONE', #622, #523, #97, .T. ) ;
#71 = ORIENTED_EDGE ( 'NONE', *, *, #409, .F. ) ;
#72 = LINE ( 'NONE', #245, #368 ) ;
#73 = CIRCLE ( 'NONE', #688, 1.750000000000003553 ) ;
#74 = SHAPE_DEFINITION_REPRESENTATION ( #304, #489 ) ;
#75 = AXIS2_PLACEMENT_3D ( 'NONE', #461, #774, #714 ) ;
#76 = CARTESIAN_POINT ( 'NONE',  ( -65.00000000000000000, 0.000000000000000000, -4.500000000000000888 ) ) ;
#77 = ADVANCED_FACE ( 'NONE', ( #402 ), #474, .F. ) ;
#78 = DIRECTION ( 'NONE',  ( 0.000000000000000000, -1.000000000000000000, 0.000000000000000000 ) ) ;
#79 = ORIENTED_EDGE ( 'NONE', *, *, #624, .F. ) ;
#80 = EDGE_LOOP ( 'NONE', ( #458, #325, #169, #334, #372, #517, #577, #676 ) ) ;
#81 = CARTESIAN_POINT ( 'NONE',  ( 59.99999999999997158, 5.000000000000000000, -1.750000000000027311 ) ) ;
#82 = FACE_BOUND ( 'NONE', #386, .T. ) ;
#83 = CARTESIAN_POINT ( 'NONE',  ( -60.00000000000002842, 2.000000000000000000, 3.100000000000000533 ) ) ;
#84 =( NAMED_UNIT ( * ) PLANE_ANGLE_UNIT ( ) SI_UNIT ( $, .RADIAN. ) );
#85 = CIRCLE ( 'NONE', #356, 4.500000000000000000 ) ;
#86 = CIRCLE ( 'NONE', #524, 4.500000000000000000 ) ;
#87 = ORIENTED_EDGE ( 'NONE', *, *, #273, .T. ) ;
#88 = LINE ( 'NONE', #76, #522 ) ;
#89 = VERTEX_POINT ( 'NONE', #538 ) ;
#90 = ORIENTED_EDGE ( 'NONE', *, *, #398, .T. ) ;
#91 = LINE ( 'NONE', #106, #52 ) ;
#92 = EDGE_CURVE ( 'NONE', #192, #323, #532, .T. ) ;
#93 = LINE ( 'NONE', #157, #5 ) ;
#94 = DIRECTION ( 'NONE',  ( 0.000000000000000000, -1.000000000000000000, 0.000000000000000000 ) ) ;
#95 = VERTEX_POINT ( 'NONE', #6 ) ;
#96 = VECTOR ( 'NONE', #471, 1000.000000000000000 ) ;
#97 = CIRCLE ( 'NONE', #184, 1.750000000000003553 ) ;
#98 = VERTEX_POINT ( 'NONE', #726 ) ;
#99 = DIRECTION ( 'NONE',  ( 0.000000000000000000, -0.000000000000000000, 1.000000000000000000 ) ) ;
#100 = ORIENTED_EDGE ( 'NONE', *, *, #724, .F. ) ;
#101 = ADVANCED_FACE ( 'NONE', ( #415 ), #177, .F. ) ;
#102 = ORIENTED_EDGE ( 'NONE', *, *, #398, .F. ) ;
#103 = DIRECTION ( 'NONE',  ( 0.000000000000000000, -1.000000000000000000, 0.000000000000000000 ) ) ;
#104 = VERTEX_POINT ( 'NONE', #118 ) ;
#105 = DIRECTION ( 'NONE',  ( 0.000000000000000000, 0.000000000000000000, -1.000000000000000000 ) ) ;
#106 = CARTESIAN_POINT ( 'NONE',  ( -60.00000000000002842, 5.000000000000000000, 1.750000000000001554 ) ) ;
#107 = EDGE_LOOP ( 'NONE', ( #401, #284 ) ) ;
#108 = AXIS2_PLACEMENT_3D ( 'NONE', #497, #492, #313 ) ;
#109 = VECTOR ( 'NONE', #599, 1000.000000000000000 ) ;
#110 = DIRECTION ( 'NONE',  ( 0.000000000000000000, -1.000000000000000000, 0.000000000000000000 ) ) ;
#111 = EDGE_CURVE ( 'NONE', #393, #49, #282, .T. ) ;
#112 = ORIENTED_EDGE ( 'NONE', *, *, #328, .T. ) ;
#113 = AXIS2_PLACEMENT_3D ( 'NONE', #347, #214, #453 ) ;
#114 = DIRECTION ( 'NONE',  ( -0.000000000000000000, -1.000000000000000000, -0.000000000000000000 ) ) ;
#115 = EDGE_CURVE ( 'NONE', #190, #20, #39, .T. ) ;
#116 = DIRECTION ( 'NONE',  ( 0.000000000000000000, -1.000000000000000000, 0.000000000000000000 ) ) ;
#117 = CARTESIAN_POINT ( 'NONE',  ( -35.50000000000001421, 10.00000000000000000, 4.499999999999999112 ) ) ;
#118 = CARTESIAN_POINT ( 'NONE',  ( 59.99999999999997158, 2.000000000000000000, -3.100000000000026290 ) ) ;
#119 = DIRECTION ( 'NONE',  ( 0.000000000000000000, 1.000000000000000000, 0.000000000000000000 ) ) ;
#120 = AXIS2_PLACEMENT_3D ( 'NONE', #659, #585, #723 ) ;
#121 = MECHANICAL_DESIGN_GEOMETRIC_PRESENTATION_REPRESENTATION (  '', ( #25 ), #665 ) ;
#122 = EDGE_CURVE ( 'NONE', #668, #695, #85, .T. ) ;
#123 = CARTESIAN_POINT ( 'NONE',  ( -35.50000000000001421, 5.000000000000000000, -4.500000000000000888 ) ) ;
#124 = EDGE_CURVE ( 'NONE', #192, #20, #535, .T. ) ;
#125 = LINE ( 'NONE', #485, #689 ) ;
#126 = PRODUCT_RELATED_PRODUCT_CATEGORY ( 'part', '', ( #187 ) ) ;
#127 = DIRECTION ( 'NONE',  ( 0.000000000000000000, 0.000000000000000000, -1.000000000000000000 ) ) ;
#128 = CARTESIAN_POINT ( 'NONE',  ( -60.50000000000000711, 5.000000000000000000, 4.499999999999999112 ) ) ;
#129 = APPLICATION_PROTOCOL_DEFINITION ( 'draft international standard', 'automotive_design', 1998, #365 ) ;
#130 = DIRECTION ( 'NONE',  ( 0.000000000000000000, -1.000000000000000000, 0.000000000000000000 ) ) ;
#131 = ADVANCED_FACE ( 'NONE', ( #30, #43, #753 ), #266, .F. ) ;
#132 = DIRECTION ( 'NONE',  ( 0.000000000000000000, -0.000000000000000000, 1.000000000000000000 ) ) ;
#133 = CIRCLE ( 'NONE', #395, 1.750000000000003553 ) ;
#134 = CARTESIAN_POINT ( 'NONE',  ( 60.50000000000000000, 0.000000000000000000, -8.673617379884035472E-16 ) ) ;
#135 = ORIENTED_EDGE ( 'NONE', *, *, #770, .T. ) ;
#136 = DIRECTION ( 'NONE',  ( 0.000000000000000000, -1.000000000000000000, 0.000000000000000000 ) ) ;
#137 = ORIENTED_EDGE ( 'NONE', *, *, #473, .T. ) ;
#138 = CARTESIAN_POINT ( 'NONE',  ( -60.00000000000002842, 5.000000000000000000, -1.902033137577125050E-15 ) ) ;
#139 = EDGE_CURVE ( 'NONE', #751, #685, #516, .T. ) ;
#140 = ORIENTED_EDGE ( 'NONE', *, *, #122, .F. ) ;
#141 = ORIENTED_EDGE ( 'NONE', *, *, #749, .T. ) ;
#142 = EDGE_LOOP ( 'NONE', ( #135, #449 ) ) ;
#143 = CARTESIAN_POINT ( 'NONE',  ( 35.50000000000000711, 5.000000000000000000, 4.499999999999999112 ) ) ;
#144 = DIRECTION ( 'NONE',  ( 0.000000000000000000, 0.000000000000000000, 1.000000000000000000 ) ) ;
#145 = PRESENTATION_STYLE_ASSIGNMENT (( #627 ) ) ;
#146 = VECTOR ( 'NONE', #250, 1000.000000000000000 ) ;
#147 = VECTOR ( 'NONE', #451, 1000.000000000000000 ) ;
#148 = AXIS2_PLACEMENT_3D ( 'NONE', #254, #445, #748 ) ;
#149 = DIRECTION ( 'NONE',  ( 0.000000000000000000, -1.000000000000000000, 0.000000000000000000 ) ) ;
#150 = CARTESIAN_POINT ( 'NONE',  ( 39.99999999999999289, 5.000000000000000000, -8.673617379884035472E-16 ) ) ;
#151 = CARTESIAN_POINT ( 'NONE',  ( -60.50000000000000711, 0.000000000000000000, -4.500000000000000888 ) ) ;
#152 = ORIENTED_EDGE ( 'NONE', *, *, #455, .F. ) ;
#153 = ORIENTED_EDGE ( 'NONE', *, *, #300, .T. ) ;
#154 = CARTESIAN_POINT ( 'NONE',  ( 60.50000000000000000, 5.000000000000000000, -4.500000000000000888 ) ) ;
#155 = CARTESIAN_POINT ( 'NONE',  ( 59.99999999999997158, 5.000000000000000000, 1.749999999999979572 ) ) ;
#156 = EDGE_LOOP ( 'NONE', ( #450, #171, #27, #161 ) ) ;
#157 = CARTESIAN_POINT ( 'NONE',  ( -60.00000000000002842, 5.000000000000000000, -1.750000000000005551 ) ) ;
#158 = ORIENTED_EDGE ( 'NONE', *, *, #628, .T. ) ;
#159 = ADVANCED_FACE ( 'NONE', ( #385, #633 ), #327, .T. ) ;
#160 = DIRECTION ( 'NONE',  ( 0.000000000000000000, 0.000000000000000000, -1.000000000000000000 ) ) ;
#161 = ORIENTED_EDGE ( 'NONE', *, *, #139, .F. ) ;
#162 = AXIS2_PLACEMENT_3D ( 'NONE', #494, #478, #12 ) ;
#163 = CIRCLE ( 'NONE', #175, 3.100000000000001865 ) ;
#164 = ORIENTED_EDGE ( 'NONE', *, *, #737, .F. ) ;
#165 = VECTOR ( 'NONE', #639, 1000.000000000000000 ) ;
#166 = VERTEX_POINT ( 'NONE', #408 ) ;
#167 = VERTEX_POINT ( 'NONE', #464 ) ;
#168 = FACE_BOUND ( 'NONE', #107, .T. ) ;
#169 = ORIENTED_EDGE ( 'NONE', *, *, #683, .F. ) ;
#170 = CARTESIAN_POINT ( 'NONE',  ( 59.99999999999997158, 5.000000000000000000, -2.394567552222947617E-14 ) ) ;
#171 = ORIENTED_EDGE ( 'NONE', *, *, #311, .T. ) ;
#172 = CARTESIAN_POINT ( 'NONE',  ( -60.00000000000002842, 0.000000000000000000, -3.100000000000003642 ) ) ;
#173 = DIRECTION ( 'NONE',  ( 0.000000000000000000, -1.000000000000000000, 0.000000000000000000 ) ) ;
#174 = DIRECTION ( 'NONE',  ( 0.000000000000000000, 1.000000000000000000, 0.000000000000000000 ) ) ;
#175 = AXIS2_PLACEMENT_3D ( 'NONE', #641, #94, #58 ) ;
#176 = PRODUCT_DEFINITION ( '鏈', '', #239, #712 ) ;
#177 = PLANE ( 'NONE',  #120 ) ;
#178 = CARTESIAN_POINT ( 'NONE',  ( 65.00000000000000000, 0.000000000000000000, -8.673617379884035472E-16 ) ) ;
#179 = DIRECTION ( 'NONE',  ( -0.000000000000000000, -1.000000000000000000, -0.000000000000000000 ) ) ;
#180 = CARTESIAN_POINT ( 'NONE',  ( -60.00000000000002842, 0.000000000000000000, 3.100000000000000533 ) ) ;
#181 = ADVANCED_FACE ( 'NONE', ( #773 ), #530, .T. ) ;
#182 = CARTESIAN_POINT ( 'NONE',  ( 59.99999999999997158, 5.000000000000000000, -2.394567552222947617E-14 ) ) ;
#183 = CARTESIAN_POINT ( 'NONE',  ( -40.00000000000000711, 10.00000000000000000, 4.499999999999999112 ) ) ;
#184 = AXIS2_PLACEMENT_3D ( 'NONE', #170, #174, #236 ) ;
#185 = CIRCLE ( 'NONE', #674, 3.100000000000002309 ) ;
#186 = PRODUCT_CONTEXT ( 'NONE', #365, 'mechanical' ) ;
#187 = PRODUCT ( '\X2\5c555e736761\X0\', '\X2\5c555e736761\X0\', '', ( #186 ) ) ;
#188 = EDGE_CURVE ( 'NONE', #394, #192, #7, .T. ) ;
#189 = CARTESIAN_POINT ( 'NONE',  ( 35.50000000000000711, 5.000000000000000000, -8.673617379884035472E-16 ) ) ;
#190 = VERTEX_POINT ( 'NONE', #403 ) ;
#191 = ORIENTED_EDGE ( 'NONE', *, *, #343, .F. ) ;
#192 = VERTEX_POINT ( 'NONE', #608 ) ;
#193 = DIRECTION ( 'NONE',  ( 0.000000000000000000, -1.000000000000000000, 0.000000000000000000 ) ) ;
#194 = VECTOR ( 'NONE', #339, 1000.000000000000000 ) ;
#195 = AXIS2_PLACEMENT_3D ( 'NONE', #279, #702, #160 ) ;
#196 = CARTESIAN_POINT ( 'NONE',  ( 59.99999999999997158, 2.000000000000000000, -2.394567552222947617E-14 ) ) ;
#197 = VERTEX_POINT ( 'NONE', #600 ) ;
#198 = VERTEX_POINT ( 'NONE', #460 ) ;
#199 = FACE_OUTER_BOUND ( 'NONE', #265, .T. ) ;
#200 = DIRECTION ( 'NONE',  ( -1.000000000000000000, -0.000000000000000000, -0.000000000000000000 ) ) ;
#201 = VERTEX_POINT ( 'NONE', #178 ) ;
#202 = DIRECTION ( 'NONE',  ( -1.000000000000000000, -0.000000000000000000, -0.000000000000000000 ) ) ;
#203 = DIRECTION ( 'NONE',  ( -0.000000000000000000, -1.000000000000000000, -0.000000000000000000 ) ) ;
#204 = EDGE_CURVE ( 'NONE', #598, #274, #317, .T. ) ;
#205 = ORIENTED_EDGE ( 'NONE', *, *, #744, .F. ) ;
#206 = CARTESIAN_POINT ( 'NONE',  ( 0.000000000000000000, 0.000000000000000000, 0.000000000000000000 ) ) ;
#207 = ORIENTED_EDGE ( 'NONE', *, *, #443, .T. ) ;
#208 =( LENGTH_UNIT ( ) NAMED_UNIT ( * ) SI_UNIT ( .MILLI., .METRE. ) );
#209 = AXIS2_PLACEMENT_3D ( 'NONE', #196, #483, #423 ) ;
#210 = VECTOR ( 'NONE', #597, 1000.000000000000000 ) ;
#211 = EDGE_LOOP ( 'NONE', ( #362, #441, #59, #388 ) ) ;
#212 = VECTOR ( 'NONE', #583, 1000.000000000000000 ) ;
#213 = EDGE_CURVE ( 'NONE', #104, #89, #593, .T. ) ;
#214 = DIRECTION ( 'NONE',  ( 0.000000000000000000, -1.000000000000000000, 0.000000000000000000 ) ) ;
#215 = EDGE_LOOP ( 'NONE', ( #71, #741 ) ) ;
#216 = CARTESIAN_POINT ( 'NONE',  ( 65.00000000000000000, 5.000000000000000000, -8.673617379884035472E-16 ) ) ;
#217 = CARTESIAN_POINT ( 'NONE',  ( 35.50000000000000711, 5.000000000000000000, -4.500000000000000888 ) ) ;
#218 = DIRECTION ( 'NONE',  ( 0.000000000000000000, 0.000000000000000000, 1.000000000000000000 ) ) ;
#219 = ORIENTED_EDGE ( 'NONE', *, *, #361, .F. ) ;
#220 = ORIENTED_EDGE ( 'NONE', *, *, #515, .T. ) ;
#221 = ADVANCED_FACE ( 'NONE', ( #296 ), #472, .F. ) ;
#222 = CARTESIAN_POINT ( 'NONE',  ( 60.50000000000000000, 0.000000000000000000, -4.500000000000000888 ) ) ;
#223 = ORIENTED_EDGE ( 'NONE', *, *, #124, .T. ) ;
#224 = DIRECTION ( 'NONE',  ( -0.000000000000000000, 1.000000000000000000, -0.000000000000000000 ) ) ;
#225 = ORIENTED_EDGE ( 'NONE', *, *, #660, .T. ) ;
#226 = VECTOR ( 'NONE', #503, 1000.000000000000000 ) ;
#227 = AXIS2_PLACEMENT_3D ( 'NONE', #35, #270, #218 ) ;
#228 = DIRECTION ( 'NONE',  ( -0.000000000000000000, -1.000000000000000000, -0.000000000000000000 ) ) ;
#229 = ORIENTED_EDGE ( 'NONE', *, *, #349, .T. ) ;
#230 = CARTESIAN_POINT ( 'NONE',  ( -60.00000000000002842, 2.000000000000000000, -1.902033137577125050E-15 ) ) ;
#231 = FACE_OUTER_BOUND ( 'NONE', #156, .T. ) ;
#232 = CYLINDRICAL_SURFACE ( 'NONE', #605, 4.500000000000000000 ) ;
#233 = DIRECTION ( 'NONE',  ( 0.000000000000000000, -0.000000000000000000, -1.000000000000000000 ) ) ;
#234 = LINE ( 'NONE', #354, #109 ) ;
#235 = FACE_OUTER_BOUND ( 'NONE', #505, .T. ) ;
#236 = DIRECTION ( 'NONE',  ( 0.000000000000000000, 0.000000000000000000, 1.000000000000000000 ) ) ;
#237 = AXIS2_PLACEMENT_3D ( 'NONE', #238, #539, #416 ) ;
#238 = CARTESIAN_POINT ( 'NONE',  ( 0.000000000000000000, 10.00000000000000000, 0.000000000000000000 ) ) ;
#239 = PRODUCT_DEFINITION_FORMATION_WITH_SPECIFIED_SOURCE ( '浠', '', #187, .NOT_KNOWN. ) ;
#240 = CARTESIAN_POINT ( 'NONE',  ( -35.50000000000001421, 5.000000000000000000, -8.673617379884035472E-16 ) ) ;
#241 = CARTESIAN_POINT ( 'NONE',  ( 59.99999999999997158, 2.000000000000000000, 3.099999999999978773 ) ) ;
#242 = CARTESIAN_POINT ( 'NONE',  ( -60.00000000000002842, 5.000000000000000000, -1.902033137577125050E-15 ) ) ;
#243 = ADVANCED_FACE ( 'NONE', ( #344 ), #720, .F. ) ;
#244 = CARTESIAN_POINT ( 'NONE',  ( -60.00000000000002842, 5.000000000000000000, 1.750000000000001554 ) ) ;
#245 = CARTESIAN_POINT ( 'NONE',  ( -60.00000000000002842, 2.000000000000000000, -3.100000000000003642 ) ) ;
#246 = DIRECTION ( 'NONE',  ( -0.000000000000000000, -1.000000000000000000, -0.000000000000000000 ) ) ;
#247 = AXIS2_PLACEMENT_3D ( 'NONE', #412, #728, #105 ) ;
#248 = ADVANCED_FACE ( 'NONE', ( #168, #400 ), #649, .T. ) ;
#249 = VERTEX_POINT ( 'NONE', #19 ) ;
#250 = DIRECTION ( 'NONE',  ( -0.000000000000000000, 1.000000000000000000, -0.000000000000000000 ) ) ;
#251 = DIRECTION ( 'NONE',  ( 0.000000000000000000, -1.000000000000000000, 0.000000000000000000 ) ) ;
#252 = DIRECTION ( 'NONE',  ( 0.000000000000000000, -1.000000000000000000, 0.000000000000000000 ) ) ;
#253 = ORIENTED_EDGE ( 'NONE', *, *, #744, .T. ) ;
#254 = CARTESIAN_POINT ( 'NONE',  ( 59.99999999999997158, 0.000000000000000000, -2.394567552222947617E-14 ) ) ;
#255 = AXIS2_PLACEMENT_3D ( 'NONE', #67, #467, #475 ) ;
#256 = AXIS2_PLACEMENT_3D ( 'NONE', #566, #387, #436 ) ;
#257 = ADVANCED_FACE ( 'NONE', ( #360 ), #731, .T. ) ;
#258 = ORIENTED_EDGE ( 'NONE', *, *, #761, .T. ) ;
#259 = ORIENTED_EDGE ( 'NONE', *, *, #581, .T. ) ;
#260 = ORIENTED_EDGE ( 'NONE', *, *, #651, .T. ) ;
#261 = EDGE_CURVE ( 'NONE', #746, #167, #673, .T. ) ;
#262 = CARTESIAN_POINT ( 'NONE',  ( 39.99999999999999289, 10.00000000000000000, -8.673617379884035472E-16 ) ) ;
#263 = ORIENTED_EDGE ( 'NONE', *, *, #349, .F. ) ;
#264 = ORIENTED_EDGE ( 'NONE', *, *, #500, .F. ) ;
#265 = EDGE_LOOP ( 'NONE', ( #390, #743, #87, #219 ) ) ;
#266 = PLANE ( 'NONE',  #548 ) ;
#267 =( NAMED_UNIT ( * ) SI_UNIT ( $, .STERADIAN. ) SOLID_ANGLE_UNIT ( ) );
#268 = DIRECTION ( 'NONE',  ( 0.000000000000000000, -1.000000000000000000, 0.000000000000000000 ) ) ;
#269 = DIRECTION ( 'NONE',  ( -0.000000000000000000, 1.000000000000000000, -0.000000000000000000 ) ) ;
#270 = DIRECTION ( 'NONE',  ( -0.000000000000000000, -1.000000000000000000, -0.000000000000000000 ) ) ;
#271 = CIRCLE ( 'NONE', #64, 4.500000000000000000 ) ;
#272 = AXIS2_PLACEMENT_3D ( 'NONE', #8, #11, #480 ) ;
#273 = EDGE_CURVE ( 'NONE', #95, #760, #561, .T. ) ;
#274 = VERTEX_POINT ( 'NONE', #244 ) ;
#275 = CARTESIAN_POINT ( 'NONE',  ( -60.50000000000000711, 0.000000000000000000, -8.673617379884035472E-16 ) ) ;
#276 = CARTESIAN_POINT ( 'NONE',  ( 35.50000000000000000, 5.000000000000000000, 4.499999999999999112 ) ) ;
#277 = ORIENTED_EDGE ( 'NONE', *, *, #724, .T. ) ;
#278 = DIRECTION ( 'NONE',  ( -0.000000000000000000, -1.000000000000000000, -0.000000000000000000 ) ) ;
#279 = CARTESIAN_POINT ( 'NONE',  ( 60.50000000000000711, 5.000000000000000000, -8.673617379884035472E-16 ) ) ;
#280 = ORIENTED_EDGE ( 'NONE', *, *, #430, .F. ) ;
#281 = EDGE_CURVE ( 'NONE', #104, #166, #125, .T. ) ;
#282 = LINE ( 'NONE', #570, #194 ) ;
#283 = DIRECTION ( 'NONE',  ( 0.000000000000000000, 0.000000000000000000, 1.000000000000000000 ) ) ;
#284 = ORIENTED_EDGE ( 'NONE', *, *, #273, .F. ) ;
#285 = CIRCLE ( 'NONE', #305, 3.100000000000001865 ) ;
#286 = CARTESIAN_POINT ( 'NONE',  ( 59.99999999999997158, 2.000000000000000000, -2.394567552222947617E-14 ) ) ;
#287 = FACE_BOUND ( 'NONE', #486, .T. ) ;
#288 = ORIENTED_EDGE ( 'NONE', *, *, #749, .F. ) ;
#289 = EDGE_LOOP ( 'NONE', ( #299, #452, #567, #112 ) ) ;
#290 = DIRECTION ( 'NONE',  ( -0.000000000000000000, -1.000000000000000000, -0.000000000000000000 ) ) ;
#291 = CARTESIAN_POINT ( 'NONE',  ( 59.99999999999997158, 5.000000000000000000, -1.750000000000027311 ) ) ;
#292 = EDGE_CURVE ( 'NONE', #197, #454, #750, .T. ) ;
#293 = DIRECTION ( 'NONE',  ( -0.000000000000000000, -1.000000000000000000, -0.000000000000000000 ) ) ;
#294 = AXIS2_PLACEMENT_3D ( 'NONE', #534, #116, #601 ) ;
#295 = CARTESIAN_POINT ( 'NONE',  ( -60.00000000000002842, 2.000000000000000000, -1.902033137577125050E-15 ) ) ;
#296 = FACE_OUTER_BOUND ( 'NONE', #568, .T. ) ;
#297 = DIRECTION ( 'NONE',  ( 0.000000000000000000, 0.000000000000000000, -1.000000000000000000 ) ) ;
#298 = DIRECTION ( 'NONE',  ( 0.000000000000000000, 0.000000000000000000, 1.000000000000000000 ) ) ;
#299 = ORIENTED_EDGE ( 'NONE', *, *, #554, .F. ) ;
#300 = EDGE_CURVE ( 'NONE', #454, #751, #271, .T. ) ;
#301 = CYLINDRICAL_SURFACE ( 'NONE', #335, 4.500000000000000000 ) ;
#302 = CYLINDRICAL_SURFACE ( 'NONE', #732, 4.500000000000000000 ) ;
#303 = DIRECTION ( 'NONE',  ( 0.000000000000000000, 1.000000000000000000, 0.000000000000000000 ) ) ;
#304 = PRODUCT_DEFINITION_SHAPE ( 'NONE', 'NONE',  #176 ) ;
#305 = AXIS2_PLACEMENT_3D ( 'NONE', #310, #251, #431 ) ;
#306 = DIRECTION ( 'NONE',  ( 0.000000000000000000, 1.000000000000000000, 0.000000000000000000 ) ) ;
#307 = AXIS2_PLACEMENT_3D ( 'NONE', #592, #771, #526 ) ;
#308 = DIRECTION ( 'NONE',  ( 0.000000000000000000, 0.000000000000000000, -1.000000000000000000 ) ) ;
#309 = DIRECTION ( 'NONE',  ( 0.000000000000000000, 0.000000000000000000, -1.000000000000000000 ) ) ;
#310 = CARTESIAN_POINT ( 'NONE',  ( -60.00000000000002842, 0.000000000000000000, -1.902033137577125050E-15 ) ) ;
#311 = EDGE_CURVE ( 'NONE', #454, #201, #374, .T. ) ;
#312 = ORIENTED_EDGE ( 'NONE', *, *, #321, .T. ) ;
#313 = DIRECTION ( 'NONE',  ( 0.000000000000000000, 0.000000000000000000, -1.000000000000000000 ) ) ;
#314 = DIRECTION ( 'NONE',  ( 0.000000000000000000, 1.000000000000000000, 0.000000000000000000 ) ) ;
#315 = EDGE_CURVE ( 'NONE', #41, #198, #432, .T. ) ;
#316 = DIRECTION ( 'NONE',  ( 0.000000000000000000, 0.000000000000000000, -1.000000000000000000 ) ) ;
#317 = CIRCLE ( 'NONE', #418, 1.750000000000003553 ) ;
#318 = PLANE ( 'NONE',  #15 ) ;
#319 = PRESENTATION_LAYER_ASSIGNMENT (  '', '', ( #25 ) ) ;
#320 = CIRCLE ( 'NONE', #420, 4.500000000000000000 ) ;
#321 = EDGE_CURVE ( 'NONE', #685, #201, #366, .T. ) ;
#322 = ORIENTED_EDGE ( 'NONE', *, *, #465, .T. ) ;
#323 = VERTEX_POINT ( 'NONE', #358 ) ;
#324 = DIRECTION ( 'NONE',  ( -0.000000000000000000, -1.000000000000000000, -0.000000000000000000 ) ) ;
#325 = ORIENTED_EDGE ( 'NONE', *, *, #455, .T. ) ;
#326 = ORIENTED_EDGE ( 'NONE', *, *, #651, .F. ) ;
#327 = PLANE ( 'NONE',  #456 ) ;
#328 = EDGE_CURVE ( 'NONE', #760, #95, #73, .T. ) ;
#329 = DIRECTION ( 'NONE',  ( -0.000000000000000000, -1.000000000000000000, -0.000000000000000000 ) ) ;
#330 = CARTESIAN_POINT ( 'NONE',  ( -35.50000000000001421, 10.00000000000000000, -8.673617379884035472E-16 ) ) ;
#331 = FILL_AREA_STYLE ('',( #571 ) ) ;
#332 = AXIS2_PLACEMENT_3D ( 'NONE', #490, #78, #316 ) ;
#333 = CIRCLE ( 'NONE', #457, 4.500000000000000000 ) ;
#334 = ORIENTED_EDGE ( 'NONE', *, *, #430, .T. ) ;
#335 = AXIS2_PLACEMENT_3D ( 'NONE', #546, #13, #536 ) ;
#336 = CYLINDRICAL_SURFACE ( 'NONE', #195, 4.500000000000000000 ) ;
#337 = ORIENTED_EDGE ( 'NONE', *, *, #465, .F. ) ;
#338 = ORIENTED_EDGE ( 'NONE', *, *, #718, .T. ) ;
#339 = DIRECTION ( 'NONE',  ( -0.000000000000000000, -1.000000000000000000, -0.000000000000000000 ) ) ;
#340 = ORIENTED_EDGE ( 'NONE', *, *, #683, .T. ) ;
#341 = CARTESIAN_POINT ( 'NONE',  ( 59.99999999999997158, 2.000000000000000000, -1.750000000000027311 ) ) ;
#342 = DIRECTION ( 'NONE',  ( 0.000000000000000000, 0.000000000000000000, -1.000000000000000000 ) ) ;
#343 = EDGE_CURVE ( 'NONE', #190, #394, #604, .T. ) ;
#344 = FACE_OUTER_BOUND ( 'NONE', #36, .T. ) ;
#345 = VERTEX_POINT ( 'NONE', #733 ) ;
#346 = AXIS2_PLACEMENT_3D ( 'NONE', #134, #246, #16 ) ;
#347 = CARTESIAN_POINT ( 'NONE',  ( 59.99999999999997158, 0.000000000000000000, -2.394567552222947617E-14 ) ) ;
#348 = VECTOR ( 'NONE', #679, 1000.000000000000000 ) ;
#349 = EDGE_CURVE ( 'NONE', #198, #690, #707, .T. ) ;
#350 = VECTOR ( 'NONE', #224, 1000.000000000000000 ) ;
#351 = ORIENTED_EDGE ( 'NONE', *, *, #479, .F. ) ;
#352 = DIRECTION ( 'NONE',  ( 0.000000000000000000, -1.000000000000000000, 0.000000000000000000 ) ) ;
#353 = EDGE_CURVE ( 'NONE', #668, #690, #618, .T. ) ;
#354 = CARTESIAN_POINT ( 'NONE',  ( -65.00000000000000000, 5.000000000000000000, -4.500000000000000888 ) ) ;
#355 = DIRECTION ( 'NONE',  ( -0.000000000000000000, -1.000000000000000000, -0.000000000000000000 ) ) ;
#356 = AXIS2_PLACEMENT_3D ( 'NONE', #48, #520, #283 ) ;
#357 = VECTOR ( 'NONE', #375, 1000.000000000000000 ) ;
#358 = CARTESIAN_POINT ( 'NONE',  ( 60.50000000000000000, 0.000000000000000000, 4.499999999999999112 ) ) ;
#359 = DIRECTION ( 'NONE',  ( 0.000000000000000000, 0.000000000000000000, 1.000000000000000000 ) ) ;
#360 = FACE_OUTER_BOUND ( 'NONE', #709, .T. ) ;
#361 = EDGE_CURVE ( 'NONE', #523, #760, #740, .T. ) ;
#362 = ORIENTED_EDGE ( 'NONE', *, *, #115, .F. ) ;
#363 = ORIENTED_EDGE ( 'NONE', *, *, #409, .T. ) ;
#364 = CYLINDRICAL_SURFACE ( 'NONE', #481, 1.750000000000003553 ) ;
#365 = APPLICATION_CONTEXT ( 'automotive_design' ) ;
#366 = CIRCLE ( 'NONE', #346, 4.500000000000000000 ) ;
#367 = CARTESIAN_POINT ( 'NONE',  ( -60.50000000000000711, 5.000000000000000000, -8.673617379884035472E-16 ) ) ;
#368 = VECTOR ( 'NONE', #114, 1000.000000000000000 ) ;
#369 = CARTESIAN_POINT ( 'NONE',  ( 59.99999999999997158, 2.000000000000000000, -2.394567552222947617E-14 ) ) ;
#370 = DIRECTION ( 'NONE',  ( 0.000000000000000000, 1.000000000000000000, 0.000000000000000000 ) ) ;
#371 = ORIENTED_EDGE ( 'NONE', *, *, #761, .F. ) ;
#372 = ORIENTED_EDGE ( 'NONE', *, *, #315, .F. ) ;
#373 = LINE ( 'NONE', #626, #147 ) ;
#374 = LINE ( 'NONE', #614, #493 ) ;
#375 = DIRECTION ( 'NONE',  ( 1.000000000000000000, 0.000000000000000000, 0.000000000000000000 ) ) ;
#376 = VERTEX_POINT ( 'NONE', #378 ) ;
#377 = ORIENTED_EDGE ( 'NONE', *, *, #434, .F. ) ;
#378 = CARTESIAN_POINT ( 'NONE',  ( -35.50000000000001421, 10.00000000000000000, -4.499999999999999112 ) ) ;
#379 = LINE ( 'NONE', #217, #165 ) ;
#380 = AXIS2_PLACEMENT_3D ( 'NONE', #671, #623, #682 ) ;
#381 = AXIS2_PLACEMENT_3D ( 'NONE', #182, #62, #297 ) ;
#382 = AXIS2_PLACEMENT_3D ( 'NONE', #613, #303, #754 ) ;
#383 = EDGE_LOOP ( 'NONE', ( #582, #703, #756, #491 ) ) ;
#384 = EDGE_CURVE ( 'NONE', #49, #502, #14, .T. ) ;
#385 = FACE_BOUND ( 'NONE', #392, .T. ) ;
#386 = EDGE_LOOP ( 'NONE', ( #684, #377 ) ) ;
#387 = DIRECTION ( 'NONE',  ( 0.000000000000000000, 1.000000000000000000, 0.000000000000000000 ) ) ;
#388 = ORIENTED_EDGE ( 'NONE', *, *, #528, .F. ) ;
#389 =( NAMED_UNIT ( * ) PLANE_ANGLE_UNIT ( ) SI_UNIT ( $, .RADIAN. ) );
#390 = ORIENTED_EDGE ( 'NONE', *, *, #675, .T. ) ;
#391 = FACE_OUTER_BOUND ( 'NONE', #555, .T. ) ;
#392 = EDGE_LOOP ( 'NONE', ( #643, #326 ) ) ;
#393 = VERTEX_POINT ( 'NONE', #83 ) ;
#394 = VERTEX_POINT ( 'NONE', #128 ) ;
#395 = AXIS2_PLACEMENT_3D ( 'NONE', #295, #173, #127 ) ;
#396 =( NAMED_UNIT ( * ) SI_UNIT ( $, .STERADIAN. ) SOLID_ANGLE_UNIT ( ) );
#397 = ORIENTED_EDGE ( 'NONE', *, *, #660, .F. ) ;
#398 = EDGE_CURVE ( 'NONE', #685, #584, #88, .T. ) ;
#399 = CYLINDRICAL_SURFACE ( 'NONE', #691, 3.100000000000001865 ) ;
#400 = FACE_OUTER_BOUND ( 'NONE', #29, .T. ) ;
#401 = ORIENTED_EDGE ( 'NONE', *, *, #328, .F. ) ;
#402 = FACE_OUTER_BOUND ( 'NONE', #527, .T. ) ;
#403 = CARTESIAN_POINT ( 'NONE',  ( -65.00000000000000000, 5.000000000000000000, -8.673617379884035472E-16 ) ) ;
#404 = ORIENTED_EDGE ( 'NONE', *, *, #619, .F. ) ;
#405 = AXIS2_PLACEMENT_3D ( 'NONE', #367, #306, #551 ) ;
#406 = VECTOR ( 'NONE', #290, 1000.000000000000000 ) ;
#407 = CARTESIAN_POINT ( 'NONE',  ( -60.00000000000002842, 2.000000000000000000, -1.902033137577125050E-15 ) ) ;
#408 = CARTESIAN_POINT ( 'NONE',  ( 59.99999999999997158, 0.000000000000000000, -3.100000000000026290 ) ) ;
#409 = EDGE_CURVE ( 'NONE', #502, #49, #285, .T. ) ;
#410 = CARTESIAN_POINT ( 'NONE',  ( -35.50000000000001421, 10.00000000000000000, -8.673617379884035472E-16 ) ) ;
#411 = ORIENTED_EDGE ( 'NONE', *, *, #473, .F. ) ;
#412 = CARTESIAN_POINT ( 'NONE',  ( -60.00000000000002842, 5.000000000000000000, -1.902033137577125050E-15 ) ) ;
#413 = LINE ( 'NONE', #540, #470 ) ;
#414 = CYLINDRICAL_SURFACE ( 'NONE', #381, 1.750000000000003553 ) ;
#415 = FACE_OUTER_BOUND ( 'NONE', #495, .T. ) ;
#416 = DIRECTION ( 'NONE',  ( 0.000000000000000000, -0.000000000000000000, 1.000000000000000000 ) ) ;
#417 = APPLICATION_PROTOCOL_DEFINITION ( 'draft international standard', 'automotive_design', 1998, #22 ) ;
#418 = AXIS2_PLACEMENT_3D ( 'NONE', #242, #119, #591 ) ;
#419 = CIRCLE ( 'NONE', #256, 1.750000000000003553 ) ;
#420 = AXIS2_PLACEMENT_3D ( 'NONE', #504, #508, #34 ) ;
#421 = ADVANCED_FACE ( 'NONE', ( #199 ), #364, .F. ) ;
#422 = ADVANCED_FACE ( 'NONE', ( #686 ), #552, .T. ) ;
#423 = DIRECTION ( 'NONE',  ( 0.000000000000000000, 0.000000000000000000, -1.000000000000000000 ) ) ;
#424 = ORIENTED_EDGE ( 'NONE', *, *, #616, .F. ) ;
#425 = LINE ( 'NONE', #752, #212 ) ;
#426 = VECTOR ( 'NONE', #352, 1000.000000000000000 ) ;
#427 = DIRECTION ( 'NONE',  ( 0.000000000000000000, -0.000000000000000000, -1.000000000000000000 ) ) ;
#428 = VERTEX_POINT ( 'NONE', #17 ) ;
#429 = ORIENTED_EDGE ( 'NONE', *, *, #581, .F. ) ;
#430 = EDGE_CURVE ( 'NONE', #695, #198, #559, .T. ) ;
#431 = DIRECTION ( 'NONE',  ( 0.000000000000000000, 0.000000000000000000, -1.000000000000000000 ) ) ;
#432 = LINE ( 'NONE', #183, #348 ) ;
#433 = ORIENTED_EDGE ( 'NONE', *, *, #698, .T. ) ;
#434 = EDGE_CURVE ( 'NONE', #274, #598, #509, .T. ) ;
#435 = DIRECTION ( 'NONE',  ( 0.000000000000000000, 1.000000000000000000, 0.000000000000000000 ) ) ;
#436 = DIRECTION ( 'NONE',  ( 0.000000000000000000, 0.000000000000000000, 1.000000000000000000 ) ) ;
#437 = VERTEX_POINT ( 'NONE', #735 ) ;
#438 = ORIENTED_EDGE ( 'NONE', *, *, #434, .T. ) ;
#439 = ORIENTED_EDGE ( 'NONE', *, *, #542, .T. ) ;
#440 = CARTESIAN_POINT ( 'NONE',  ( 59.99999999999997158, 5.000000000000000000, -2.394567552222947617E-14 ) ) ;
#441 = ORIENTED_EDGE ( 'NONE', *, *, #698, .F. ) ;
#442 = CARTESIAN_POINT ( 'NONE',  ( -60.50000000000000711, 5.000000000000000000, -4.500000000000000888 ) ) ;
#443 = EDGE_CURVE ( 'NONE', #394, #345, #425, .T. ) ;
#444 = ORIENTED_EDGE ( 'NONE', *, *, #139, .T. ) ;
#445 = DIRECTION ( 'NONE',  ( 0.000000000000000000, -1.000000000000000000, 0.000000000000000000 ) ) ;
#446 = ORIENTED_EDGE ( 'NONE', *, *, #528, .T. ) ;
#447 = CARTESIAN_POINT ( 'NONE',  ( -60.00000000000002842, 2.000000000000000000, -1.902033137577125050E-15 ) ) ;
#448 = PLANE ( 'NONE',  #75 ) ;
#449 = ORIENTED_EDGE ( 'NONE', *, *, #624, .T. ) ;
#450 = ORIENTED_EDGE ( 'NONE', *, *, #300, .F. ) ;
#451 = DIRECTION ( 'NONE',  ( -0.000000000000000000, -1.000000000000000000, -0.000000000000000000 ) ) ;
#452 = ORIENTED_EDGE ( 'NONE', *, *, #70, .T. ) ;
#453 = DIRECTION ( 'NONE',  ( 0.000000000000000000, 0.000000000000000000, -1.000000000000000000 ) ) ;
#454 = VERTEX_POINT ( 'NONE', #216 ) ;
#455 = EDGE_CURVE ( 'NONE', #323, #197, #763, .T. ) ;
#456 = AXIS2_PLACEMENT_3D ( 'NONE', #447, #110, #233 ) ;
#457 = AXIS2_PLACEMENT_3D ( 'NONE', #590, #51, #656 ) ;
#458 = ORIENTED_EDGE ( 'NONE', *, *, #92, .T. ) ;
#459 = DIRECTION ( 'NONE',  ( 0.000000000000000000, 0.000000000000000000, -1.000000000000000000 ) ) ;
#460 = CARTESIAN_POINT ( 'NONE',  ( 35.50000000000000711, 10.00000000000000000, 4.499999999999999112 ) ) ;
#461 = CARTESIAN_POINT ( 'NONE',  ( 0.000000000000000000, 5.000000000000000000, 0.000000000000000000 ) ) ;
#462 = ORIENTED_EDGE ( 'NONE', *, *, #47, .T. ) ;
#463 = DIRECTION ( 'NONE',  ( 0.000000000000000000, -1.000000000000000000, 0.000000000000000000 ) ) ;
#464 = CARTESIAN_POINT ( 'NONE',  ( -60.00000000000002842, 2.000000000000000000, 1.750000000000001554 ) ) ;
#465 = EDGE_CURVE ( 'NONE', #437, #41, #537, .T. ) ;
#466 = FACE_OUTER_BOUND ( 'NONE', #383, .T. ) ;
#467 = DIRECTION ( 'NONE',  ( 0.000000000000000000, -1.000000000000000000, 0.000000000000000000 ) ) ;
#468 = VECTOR ( 'NONE', #149, 1000.000000000000000 ) ;
#469 = DIRECTION ( 'NONE',  ( 0.000000000000000000, 0.000000000000000000, -1.000000000000000000 ) ) ;
#470 = VECTOR ( 'NONE', #543, 1000.000000000000000 ) ;
#471 = DIRECTION ( 'NONE',  ( 1.000000000000000000, 0.000000000000000000, 0.000000000000000000 ) ) ;
#472 = CYLINDRICAL_SURFACE ( 'NONE', #247, 1.750000000000003553 ) ;
#473 = EDGE_CURVE ( 'NONE', #428, #502, #72, .T. ) ;
#474 = CYLINDRICAL_SURFACE ( 'NONE', #652, 3.100000000000001865 ) ;
#475 = DIRECTION ( 'NONE',  ( 0.000000000000000000, 0.000000000000000000, -1.000000000000000000 ) ) ;
#476 = FACE_OUTER_BOUND ( 'NONE', #512, .T. ) ;
#477 = DIRECTION ( 'NONE',  ( 0.000000000000000000, -1.000000000000000000, 0.000000000000000000 ) ) ;
#478 = DIRECTION ( 'NONE',  ( 0.000000000000000000, 1.000000000000000000, 0.000000000000000000 ) ) ;
#479 = EDGE_CURVE ( 'NONE', #751, #715, #234, .T. ) ;
#480 = DIRECTION ( 'NONE',  ( 0.000000000000000000, 0.000000000000000000, 1.000000000000000000 ) ) ;
#481 = AXIS2_PLACEMENT_3D ( 'NONE', #440, #677, #308 ) ;
#482 = AXIS2_PLACEMENT_3D ( 'NONE', #410, #4, #719 ) ;
#483 = DIRECTION ( 'NONE',  ( 0.000000000000000000, -1.000000000000000000, 0.000000000000000000 ) ) ;
#484 = CIRCLE ( 'NONE', #148, 3.100000000000002309 ) ;
#485 = CARTESIAN_POINT ( 'NONE',  ( 59.99999999999997158, 2.000000000000000000, -3.100000000000026290 ) ) ;
#486 = EDGE_LOOP ( 'NONE', ( #557, #573 ) ) ;
#487 = DIRECTION ( 'NONE',  ( 0.000000000000000000, 0.000000000000000000, 1.000000000000000000 ) ) ;
#488 = ADVANCED_FACE ( 'NONE', ( #531 ), #302, .T. ) ;
#489 = ADVANCED_BREP_SHAPE_REPRESENTATION ( '\X2\5c555e736761\X0\', ( #692, #710 ), #694 ) ;
#490 = CARTESIAN_POINT ( 'NONE',  ( -60.00000000000002842, 2.000000000000000000, -1.902033137577125050E-15 ) ) ;
#491 = ORIENTED_EDGE ( 'NONE', *, *, #737, .T. ) ;
#492 = DIRECTION ( 'NONE',  ( 0.000000000000000000, -1.000000000000000000, 0.000000000000000000 ) ) ;
#493 = VECTOR ( 'NONE', #252, 1000.000000000000000 ) ;
#494 = CARTESIAN_POINT ( 'NONE',  ( 60.50000000000000711, 5.000000000000000000, -8.673617379884035472E-16 ) ) ;
#495 = EDGE_LOOP ( 'NONE', ( #351, #444, #90, #615, #205, #225, #506, #141 ) ) ;
#496 = AXIS2_PLACEMENT_3D ( 'NONE', #529, #759, #31 ) ;
#497 = CARTESIAN_POINT ( 'NONE',  ( -35.50000000000001421, 10.00000000000000000, -8.673617379884035472E-16 ) ) ;
#498 = LINE ( 'NONE', #442, #54 ) ;
#499 = ORIENTED_EDGE ( 'NONE', *, *, #619, .T. ) ;
#500 = EDGE_CURVE ( 'NONE', #376, #437, #38, .T. ) ;
#501 = ORIENTED_EDGE ( 'NONE', *, *, #616, .T. ) ;
#502 = VERTEX_POINT ( 'NONE', #172 ) ;
#503 = DIRECTION ( 'NONE',  ( -0.000000000000000000, 1.000000000000000000, -0.000000000000000000 ) ) ;
#504 = CARTESIAN_POINT ( 'NONE',  ( 35.50000000000000711, 10.00000000000000000, -8.673617379884035472E-16 ) ) ;
#505 = EDGE_LOOP ( 'NONE', ( #263, #280, #140, #670 ) ) ;
#506 = ORIENTED_EDGE ( 'NONE', *, *, #628, .F. ) ;
#507 = ADVANCED_FACE ( 'NONE', ( #655 ), #661, .T. ) ;
#508 = DIRECTION ( 'NONE',  ( 0.000000000000000000, 1.000000000000000000, 0.000000000000000000 ) ) ;
#509 = CIRCLE ( 'NONE', #721, 1.750000000000003553 ) ;
#510 = CIRCLE ( 'NONE', #227, 4.500000000000000000 ) ;
#511 = ADVANCED_FACE ( 'NONE', ( #658 ), #414, .F. ) ;
#512 = EDGE_LOOP ( 'NONE', ( #433, #772, #207, #277, #220, #253 ) ) ;
#513 = ORIENTED_EDGE ( 'NONE', *, *, #500, .T. ) ;
#514 = ORIENTED_EDGE ( 'NONE', *, *, #188, .F. ) ;
#515 = EDGE_CURVE ( 'NONE', #98, #249, #564, .T. ) ;
#516 = LINE ( 'NONE', #693, #468 ) ;
#517 = ORIENTED_EDGE ( 'NONE', *, *, #9, .T. ) ;
#518 = LINE ( 'NONE', #63, #210 ) ;
#519 = UNCERTAINTY_MEASURE_WITH_UNIT (LENGTH_MEASURE( 1.000000000000000082E-05 ), #576, 'distance_accuracy_value', 'NONE');
#520 = DIRECTION ( 'NONE',  ( -0.000000000000000000, -1.000000000000000000, -0.000000000000000000 ) ) ;
#521 = FACE_OUTER_BOUND ( 'NONE', #762, .T. ) ;
#522 = VECTOR ( 'NONE', #202, 1000.000000000000000 ) ;
#523 = VERTEX_POINT ( 'NONE', #291 ) ;
#524 = AXIS2_PLACEMENT_3D ( 'NONE', #745, #203, #547 ) ;
#525 = DIRECTION ( 'NONE',  ( 0.000000000000000000, 0.000000000000000000, -1.000000000000000000 ) ) ;
#526 = DIRECTION ( 'NONE',  ( 0.000000000000000000, 0.000000000000000000, -1.000000000000000000 ) ) ;
#527 = EDGE_LOOP ( 'NONE', ( #680, #642, #137, #363 ) ) ;
#528 = EDGE_CURVE ( 'NONE', #20, #584, #769, .T. ) ;
#529 = CARTESIAN_POINT ( 'NONE',  ( -65.00000000000000000, 5.000000000000000000, 4.499999999999999112 ) ) ;
#530 = PLANE ( 'NONE',  #237 ) ;
#531 = FACE_OUTER_BOUND ( 'NONE', #211, .T. ) ;
#532 = LINE ( 'NONE', #2, #96 ) ;
#533 = ADVANCED_FACE ( 'NONE', ( #476, #82 ), #318, .T. ) ;
#534 = CARTESIAN_POINT ( 'NONE',  ( -60.50000000000000711, 5.000000000000000000, -8.673617379884035472E-16 ) ) ;
#535 = CIRCLE ( 'NONE', #3, 4.500000000000000000 ) ;
#536 = DIRECTION ( 'NONE',  ( 0.000000000000000000, 0.000000000000000000, -1.000000000000000000 ) ) ;
#537 = CIRCLE ( 'NONE', #742, 4.500000000000000000 ) ;
#538 = CARTESIAN_POINT ( 'NONE',  ( 59.99999999999997158, 2.000000000000000000, 3.099999999999978773 ) ) ;
#539 = DIRECTION ( 'NONE',  ( 0.000000000000000000, 1.000000000000000000, 0.000000000000000000 ) ) ;
#540 = CARTESIAN_POINT ( 'NONE',  ( -40.00000000000000711, 10.00000000000000000, -4.499999999999999112 ) ) ;
#541 = DIRECTION ( 'NONE',  ( -0.000000000000000000, -1.000000000000000000, -0.000000000000000000 ) ) ;
#542 = EDGE_CURVE ( 'NONE', #89, #104, #185, .T. ) ;
#543 = DIRECTION ( 'NONE',  ( -1.000000000000000000, -0.000000000000000000, -0.000000000000000000 ) ) ;
#544 = DIRECTION ( 'NONE',  ( 0.000000000000000000, 0.000000000000000000, 1.000000000000000000 ) ) ;
#545 = FACE_OUTER_BOUND ( 'NONE', #80, .T. ) ;
#546 = CARTESIAN_POINT ( 'NONE',  ( -35.50000000000001421, 5.000000000000000000, -8.673617379884035472E-16 ) ) ;
#547 = DIRECTION ( 'NONE',  ( 0.000000000000000000, 0.000000000000000000, 1.000000000000000000 ) ) ;
#548 = AXIS2_PLACEMENT_3D ( 'NONE', #206, #700, #99 ) ;
#549 = CLOSED_SHELL ( 'NONE', ( #32, #606, #421, #221, #610, #243, #511, #533, #131, #101, #667, #60, #248, #77, #159, #181, #257, #657, #422, #640, #569, #18, #488, #507 ) ) ;
#550 = AXIS2_PLACEMENT_3D ( 'NONE', #240, #179, #544 ) ;
#551 = DIRECTION ( 'NONE',  ( 0.000000000000000000, 0.000000000000000000, 1.000000000000000000 ) ) ;
#552 = CYLINDRICAL_SURFACE ( 'NONE', #108, 4.500000000000000000 ) ;
#553 = VECTOR ( 'NONE', #200, 1000.000000000000000 ) ;
#554 = EDGE_CURVE ( 'NONE', #622, #95, #373, .T. ) ;
#555 = EDGE_LOOP ( 'NONE', ( #594, #153, #560, #499, #717, #340 ) ) ;
#556 = DIRECTION ( 'NONE',  ( -0.000000000000000000, -1.000000000000000000, -0.000000000000000000 ) ) ;
#557 = ORIENTED_EDGE ( 'NONE', *, *, #675, .F. ) ;
#558 = ORIENTED_EDGE ( 'NONE', *, *, #353, .F. ) ;
#559 = LINE ( 'NONE', #143, #146 ) ;
#560 = ORIENTED_EDGE ( 'NONE', *, *, #479, .T. ) ;
#561 = CIRCLE ( 'NONE', #209, 1.750000000000003553 ) ;
#562 = AXIS2_PLACEMENT_3D ( 'NONE', #286, #355, #525 ) ;
#563 = ORIENTED_EDGE ( 'NONE', *, *, #718, .F. ) ;
#564 = CIRCLE ( 'NONE', #550, 4.500000000000000000 ) ;
#565 = CARTESIAN_POINT ( 'NONE',  ( -60.00000000000002842, 0.000000000000000000, -1.902033137577125050E-15 ) ) ;
#566 = CARTESIAN_POINT ( 'NONE',  ( 59.99999999999997158, 5.000000000000000000, -2.394567552222947617E-14 ) ) ;
#567 = ORIENTED_EDGE ( 'NONE', *, *, #361, .T. ) ;
#568 = EDGE_LOOP ( 'NONE', ( #572, #501, #260, #26 ) ) ;
#569 = ADVANCED_FACE ( 'NONE', ( #636 ), #336, .T. ) ;
#570 = CARTESIAN_POINT ( 'NONE',  ( -60.00000000000002842, 2.000000000000000000, 3.100000000000000533 ) ) ;
#571 = FILL_AREA_STYLE_COLOUR ( '', #708 ) ;
#572 = ORIENTED_EDGE ( 'NONE', *, *, #204, .T. ) ;
#573 = ORIENTED_EDGE ( 'NONE', *, *, #70, .F. ) ;
#574 = CARTESIAN_POINT ( 'NONE',  ( -65.00000000000000000, 5.000000000000000000, -4.500000000000000888 ) ) ;
#575 = ORIENTED_EDGE ( 'NONE', *, *, #261, .T. ) ;
#576 =( LENGTH_UNIT ( ) NAMED_UNIT ( * ) SI_UNIT ( .MILLI., .METRE. ) );
#577 = ORIENTED_EDGE ( 'NONE', *, *, #443, .F. ) ;
#578 = SURFACE_STYLE_FILL_AREA ( #331 ) ;
#579 = CIRCLE ( 'NONE', #382, 4.500000000000000000 ) ;
#580 = VERTEX_POINT ( 'NONE', #53 ) ;
#581 = EDGE_CURVE ( 'NONE', #437, #98, #764, .T. ) ;
#582 = ORIENTED_EDGE ( 'NONE', *, *, #24, .F. ) ;
#583 = DIRECTION ( 'NONE',  ( 1.000000000000000000, 0.000000000000000000, 0.000000000000000000 ) ) ;
#584 = VERTEX_POINT ( 'NONE', #151 ) ;
#585 = DIRECTION ( 'NONE',  ( 0.000000000000000000, 0.000000000000000000, 1.000000000000000000 ) ) ;
#586 = CARTESIAN_POINT ( 'NONE',  ( -65.00000000000000000, 5.000000000000000000, -8.673617379884035472E-16 ) ) ;
#587 = CARTESIAN_POINT ( 'NONE',  ( -60.00000000000002842, 5.000000000000000000, -1.750000000000005551 ) ) ;
#588 = EDGE_LOOP ( 'NONE', ( #632, #229, #338, #158, #513, #322 ) ) ;
#589 = CARTESIAN_POINT ( 'NONE',  ( 59.99999999999997158, 0.000000000000000000, 3.099999999999978773 ) ) ;
#590 = CARTESIAN_POINT ( 'NONE',  ( 60.50000000000000711, 0.000000000000000000, -8.673617379884035472E-16 ) ) ;
#591 = DIRECTION ( 'NONE',  ( 0.000000000000000000, 0.000000000000000000, 1.000000000000000000 ) ) ;
#592 = CARTESIAN_POINT ( 'NONE',  ( 59.99999999999997158, 2.000000000000000000, -2.394567552222947617E-14 ) ) ;
#593 = CIRCLE ( 'NONE', #255, 3.100000000000002309 ) ;
#594 = ORIENTED_EDGE ( 'NONE', *, *, #292, .T. ) ;
#595 = CARTESIAN_POINT ( 'NONE',  ( 35.50000000000000000, 10.00000000000000000, -8.673617379884035472E-16 ) ) ;
#596 = CIRCLE ( 'NONE', #113, 3.100000000000002309 ) ;
#597 = DIRECTION ( 'NONE',  ( 0.000000000000000000, -1.000000000000000000, 0.000000000000000000 ) ) ;
#598 = VERTEX_POINT ( 'NONE', #587 ) ;
#599 = DIRECTION ( 'NONE',  ( -1.000000000000000000, -0.000000000000000000, -0.000000000000000000 ) ) ;
#600 = CARTESIAN_POINT ( 'NONE',  ( 60.50000000000000000, 5.000000000000000000, 4.499999999999999112 ) ) ;
#601 = DIRECTION ( 'NONE',  ( 0.000000000000000000, 0.000000000000000000, -1.000000000000000000 ) ) ;
#602 = DIRECTION ( 'NONE',  ( 0.000000000000000000, 0.000000000000000000, -1.000000000000000000 ) ) ;
#603 = CARTESIAN_POINT ( 'NONE',  ( -60.50000000000000711, 5.000000000000000000, 4.499999999999999112 ) ) ;
#604 = CIRCLE ( 'NONE', #405, 4.500000000000000000 ) ;
#605 = AXIS2_PLACEMENT_3D ( 'NONE', #45, #463, #459 ) ;
#606 = ADVANCED_FACE ( 'NONE', ( #521 ), #755, .F. ) ;
#607 = AXIS2_PLACEMENT_3D ( 'NONE', #230, #50, #696 ) ;
#608 = CARTESIAN_POINT ( 'NONE',  ( -60.50000000000000711, 0.000000000000000000, 4.499999999999999112 ) ) ;
#609 = CARTESIAN_POINT ( 'NONE',  ( -60.50000000000000711, 5.000000000000000000, -8.673617379884035472E-16 ) ) ;
#610 = ADVANCED_FACE ( 'NONE', ( #391, #287 ), #448, .T. ) ;
#611 = DIRECTION ( 'NONE',  ( -0.000000000000000000, 1.000000000000000000, -0.000000000000000000 ) ) ;
#612 = CARTESIAN_POINT ( 'NONE',  ( 59.99999999999997158, 2.000000000000000000, -2.394567552222947617E-14 ) ) ;
#613 = CARTESIAN_POINT ( 'NONE',  ( -60.50000000000000711, 5.000000000000000000, -8.673617379884035472E-16 ) ) ;
#614 = CARTESIAN_POINT ( 'NONE',  ( 65.00000000000000000, 5.000000000000000000, -8.673617379884035472E-16 ) ) ;
#615 = ORIENTED_EDGE ( 'NONE', *, *, #727, .T. ) ;
#616 = EDGE_CURVE ( 'NONE', #274, #167, #91, .T. ) ;
#617 = AXIS2_PLACEMENT_3D ( 'NONE', #189, #136, #309 ) ;
#618 = LINE ( 'NONE', #262, #226 ) ;
#619 = EDGE_CURVE ( 'NONE', #715, #668, #510, .T. ) ;
#620 = DIRECTION ( 'NONE',  ( 0.000000000000000000, -1.000000000000000000, 0.000000000000000000 ) ) ;
#621 = CARTESIAN_POINT ( 'NONE',  ( 59.99999999999997158, 2.000000000000000000, -2.394567552222947617E-14 ) ) ;
#622 = VERTEX_POINT ( 'NONE', #155 ) ;
#623 = DIRECTION ( 'NONE',  ( 0.000000000000000000, 1.000000000000000000, 0.000000000000000000 ) ) ;
#624 = EDGE_CURVE ( 'NONE', #393, #428, #163, .T. ) ;
#625 = CARTESIAN_POINT ( 'NONE',  ( 0.000000000000000000, 0.000000000000000000, 0.000000000000000000 ) ) ;
#626 = CARTESIAN_POINT ( 'NONE',  ( 59.99999999999997158, 5.000000000000000000, 1.749999999999979572 ) ) ;
#627 = SURFACE_STYLE_USAGE ( .BOTH. , #28 ) ;
#628 = EDGE_CURVE ( 'NONE', #638, #376, #413, .T. ) ;
#629 = AXIS2_PLACEMENT_3D ( 'NONE', #621, #666, #427 ) ;
#630 = VECTOR ( 'NONE', #103, 1000.000000000000000 ) ;
#631 = CARTESIAN_POINT ( 'NONE',  ( 39.99999999999999289, 10.00000000000000000, -8.673617379884035472E-16 ) ) ;
#632 = ORIENTED_EDGE ( 'NONE', *, *, #315, .T. ) ;
#633 = FACE_OUTER_BOUND ( 'NONE', #142, .T. ) ;
#634 = ORIENTED_EDGE ( 'NONE', *, *, #24, .T. ) ;
#635 = CARTESIAN_POINT ( 'NONE',  ( -65.00000000000000000, 5.000000000000000000, 4.499999999999999112 ) ) ;
#636 = FACE_OUTER_BOUND ( 'NONE', #681, .T. ) ;
#637 = ORIENTED_EDGE ( 'NONE', *, *, #384, .T. ) ;
#638 = VERTEX_POINT ( 'NONE', #729 ) ;
#639 = DIRECTION ( 'NONE',  ( 0.000000000000000000, -1.000000000000000000, 0.000000000000000000 ) ) ;
#640 = ADVANCED_FACE ( 'NONE', ( #10 ), #301, .T. ) ;
#641 = CARTESIAN_POINT ( 'NONE',  ( -60.00000000000002842, 2.000000000000000000, -1.902033137577125050E-15 ) ) ;
#642 = ORIENTED_EDGE ( 'NONE', *, *, #770, .F. ) ;
#643 = ORIENTED_EDGE ( 'NONE', *, *, #261, .F. ) ;
#644 = AXIS2_PLACEMENT_3D ( 'NONE', #57, #541, #713 ) ;
#645 = ORIENTED_EDGE ( 'NONE', *, *, #111, .T. ) ;
#646 = CARTESIAN_POINT ( 'NONE',  ( -40.00000000000000711, 10.00000000000000000, -8.673617379884035472E-16 ) ) ;
#647 = EDGE_LOOP ( 'NONE', ( #102, #312, #462, #758, #223, #446 ) ) ;
#648 = CARTESIAN_POINT ( 'NONE',  ( -65.00000000000000000, 0.000000000000000000, -8.673617379884035472E-16 ) ) ;
#649 = PLANE ( 'NONE',  #629 ) ;
#650 = ORIENTED_EDGE ( 'NONE', *, *, #9, .F. ) ;
#651 = EDGE_CURVE ( 'NONE', #167, #746, #133, .T. ) ;
#652 = AXIS2_PLACEMENT_3D ( 'NONE', #407, #293, #602 ) ;
#653 = ORIENTED_EDGE ( 'NONE', *, *, #311, .F. ) ;
#654 = CYLINDRICAL_SURFACE ( 'NONE', #562, 3.100000000000002309 ) ;
#655 = FACE_OUTER_BOUND ( 'NONE', #739, .T. ) ;
#656 = DIRECTION ( 'NONE',  ( 4.625929269271485322E-15, 0.000000000000000000, 1.000000000000000000 ) ) ;
#657 = ADVANCED_FACE ( 'NONE', ( #235 ), #722, .T. ) ;
#658 = FACE_OUTER_BOUND ( 'NONE', #289, .T. ) ;
#659 = CARTESIAN_POINT ( 'NONE',  ( -65.00000000000000000, 5.000000000000000000, -4.500000000000000888 ) ) ;
#660 = EDGE_CURVE ( 'NONE', #249, #376, #663, .T. ) ;
#661 = CYLINDRICAL_SURFACE ( 'NONE', #294, 4.500000000000000000 ) ;
#662 = VECTOR ( 'NONE', #324, 1000.000000000000000 ) ;
#663 = LINE ( 'NONE', #123, #664 ) ;
#664 = VECTOR ( 'NONE', #611, 1000.000000000000000 ) ;
#665 =( GEOMETRIC_REPRESENTATION_CONTEXT ( 3 ) GLOBAL_UNCERTAINTY_ASSIGNED_CONTEXT ( ( #46 ) ) GLOBAL_UNIT_ASSIGNED_CONTEXT ( ( #208, #84, #267 ) ) REPRESENTATION_CONTEXT ( 'NONE', 'WORKASPACE' ) );
#666 = DIRECTION ( 'NONE',  ( 0.000000000000000000, -1.000000000000000000, 0.000000000000000000 ) ) ;
#667 = ADVANCED_FACE ( 'NONE', ( #545 ), #56, .F. ) ;
#668 = VERTEX_POINT ( 'NONE', #150 ) ;
#669 = DIRECTION ( 'NONE',  ( 0.000000000000000000, 0.000000000000000000, -1.000000000000000000 ) ) ;
#670 = ORIENTED_EDGE ( 'NONE', *, *, #353, .T. ) ;
#671 = CARTESIAN_POINT ( 'NONE',  ( 35.50000000000000000, 10.00000000000000000, -8.673617379884035472E-16 ) ) ;
#672 = CARTESIAN_POINT ( 'NONE',  ( 0.000000000000000000, 5.000000000000000000, 0.000000000000000000 ) ) ;
#673 = CIRCLE ( 'NONE', #332, 1.750000000000003553 ) ;
#674 = AXIS2_PLACEMENT_3D ( 'NONE', #369, #620, #678 ) ;
#675 = EDGE_CURVE ( 'NONE', #523, #622, #419, .T. ) ;
#676 = ORIENTED_EDGE ( 'NONE', *, *, #188, .T. ) ;
#677 = DIRECTION ( 'NONE',  ( -0.000000000000000000, -1.000000000000000000, -0.000000000000000000 ) ) ;
#678 = DIRECTION ( 'NONE',  ( 0.000000000000000000, 0.000000000000000000, -1.000000000000000000 ) ) ;
#679 = DIRECTION ( 'NONE',  ( 1.000000000000000000, 0.000000000000000000, 0.000000000000000000 ) ) ;
#680 = ORIENTED_EDGE ( 'NONE', *, *, #111, .F. ) ;
#681 = EDGE_LOOP ( 'NONE', ( #653, #33, #152, #705 ) ) ;
#682 = DIRECTION ( 'NONE',  ( 0.000000000000000000, 0.000000000000000000, 1.000000000000000000 ) ) ;
#683 = EDGE_CURVE ( 'NONE', #695, #197, #40, .T. ) ;
#684 = ORIENTED_EDGE ( 'NONE', *, *, #204, .F. ) ;
#685 = VERTEX_POINT ( 'NONE', #222 ) ;
#686 = FACE_OUTER_BOUND ( 'NONE', #706, .T. ) ;
#687 = CARTESIAN_POINT ( 'NONE',  ( -60.00000000000002842, 2.000000000000000000, -1.750000000000005551 ) ) ;
#688 = AXIS2_PLACEMENT_3D ( 'NONE', #612, #130, #69 ) ;
#689 = VECTOR ( 'NONE', #556, 1000.000000000000000 ) ;
#690 = VERTEX_POINT ( 'NONE', #631 ) ;
#691 = AXIS2_PLACEMENT_3D ( 'NONE', #716, #228, #342 ) ;
#692 = MANIFOLD_SOLID_BREP ( '圆角2', #549 ) ;
#693 = CARTESIAN_POINT ( 'NONE',  ( 60.50000000000000000, 5.000000000000000000, -4.500000000000000888 ) ) ;
#694 =( GEOMETRIC_REPRESENTATION_CONTEXT ( 3 ) GLOBAL_UNCERTAINTY_ASSIGNED_CONTEXT ( ( #519 ) ) GLOBAL_UNIT_ASSIGNED_CONTEXT ( ( #576, #389, #396 ) ) REPRESENTATION_CONTEXT ( 'NONE', 'WORKASPACE' ) );
#695 = VERTEX_POINT ( 'NONE', #276 ) ;
#696 = DIRECTION ( 'NONE',  ( 0.000000000000000000, 0.000000000000000000, -1.000000000000000000 ) ) ;
#697 = ORIENTED_EDGE ( 'NONE', *, *, #757, .T. ) ;
#698 = EDGE_CURVE ( 'NONE', #580, #190, #579, .T. ) ;
#699 = CARTESIAN_POINT ( 'NONE',  ( 60.50000000000000000, 5.000000000000000000, 4.499999999999999112 ) ) ;
#700 = DIRECTION ( 'NONE',  ( 0.000000000000000000, 1.000000000000000000, 0.000000000000000000 ) ) ;
#701 = LINE ( 'NONE', #574, #553 ) ;
#702 = DIRECTION ( 'NONE',  ( 0.000000000000000000, -1.000000000000000000, 0.000000000000000000 ) ) ;
#703 = ORIENTED_EDGE ( 'NONE', *, *, #213, .F. ) ;
#704 = ORIENTED_EDGE ( 'NONE', *, *, #515, .F. ) ;
#705 = ORIENTED_EDGE ( 'NONE', *, *, #47, .F. ) ;
#706 = EDGE_LOOP ( 'NONE', ( #429, #264, #397, #704 ) ) ;
#707 = CIRCLE ( 'NONE', #380, 4.500000000000000000 ) ;
#708 = COLOUR_RGB ( '',0.7921568627450980005, 0.8196078431372548767, 0.9333333333333333481 ) ;
#709 = EDGE_LOOP ( 'NONE', ( #288, #563, #558, #404 ) ) ;
#710 = AXIS2_PLACEMENT_3D ( 'NONE', #625, #359, #736 ) ;
#711 = LINE ( 'NONE', #241, #406 ) ;
#712 = PRODUCT_DEFINITION_CONTEXT ( 'detailed design', #22, 'design' ) ;
#713 = DIRECTION ( 'NONE',  ( 0.000000000000000000, 0.000000000000000000, -1.000000000000000000 ) ) ;
#714 = DIRECTION ( 'NONE',  ( 0.000000000000000000, -0.000000000000000000, 1.000000000000000000 ) ) ;
#715 = VERTEX_POINT ( 'NONE', #747 ) ;
#716 = CARTESIAN_POINT ( 'NONE',  ( -60.00000000000002842, 2.000000000000000000, -1.902033137577125050E-15 ) ) ;
#717 = ORIENTED_EDGE ( 'NONE', *, *, #122, .T. ) ;
#718 = EDGE_CURVE ( 'NONE', #690, #638, #320, .T. ) ;
#719 = DIRECTION ( 'NONE',  ( 0.000000000000000000, 0.000000000000000000, 1.000000000000000000 ) ) ;
#720 = CYLINDRICAL_SURFACE ( 'NONE', #644, 1.750000000000003553 ) ;
#721 = AXIS2_PLACEMENT_3D ( 'NONE', #138, #435, #487 ) ;
#722 = CYLINDRICAL_SURFACE ( 'NONE', #65, 4.500000000000000000 ) ;
#723 = DIRECTION ( 'NONE',  ( 1.000000000000000000, 0.000000000000000000, -0.000000000000000000 ) ) ;
#724 = EDGE_CURVE ( 'NONE', #345, #98, #86, .T. ) ;
#725 = DIRECTION ( 'NONE',  ( 0.000000000000000000, 0.000000000000000000, 1.000000000000000000 ) ) ;
#726 = CARTESIAN_POINT ( 'NONE',  ( -40.00000000000000711, 5.000000000000000000, -8.673617379884035472E-16 ) ) ;
#727 = EDGE_CURVE ( 'NONE', #584, #580, #498, .T. ) ;
#728 = DIRECTION ( 'NONE',  ( -0.000000000000000000, -1.000000000000000000, -0.000000000000000000 ) ) ;
#729 = CARTESIAN_POINT ( 'NONE',  ( 35.50000000000000711, 10.00000000000000000, -4.499999999999999112 ) ) ;
#730 = DIRECTION ( 'NONE',  ( 0.000000000000000000, 0.000000000000000000, -1.000000000000000000 ) ) ;
#731 = CYLINDRICAL_SURFACE ( 'NONE', #617, 4.500000000000000000 ) ;
#732 = AXIS2_PLACEMENT_3D ( 'NONE', #609, #61, #730 ) ;
#733 = CARTESIAN_POINT ( 'NONE',  ( -35.50000000000001421, 5.000000000000000000, 4.499999999999999112 ) ) ;
#734 = EDGE_LOOP ( 'NONE', ( #337, #259, #100, #650 ) ) ;
#735 = CARTESIAN_POINT ( 'NONE',  ( -40.00000000000000711, 10.00000000000000000, -8.673617379884035472E-16 ) ) ;
#736 = DIRECTION ( 'NONE',  ( 1.000000000000000000, 0.000000000000000000, 0.000000000000000000 ) ) ;
#737 = EDGE_CURVE ( 'NONE', #166, #775, #484, .T. ) ;
#738 = ORIENTED_EDGE ( 'NONE', *, *, #124, .F. ) ;
#739 = EDGE_LOOP ( 'NONE', ( #191, #55, #738, #514 ) ) ;
#740 = LINE ( 'NONE', #81, #662 ) ;
#741 = ORIENTED_EDGE ( 'NONE', *, *, #384, .F. ) ;
#742 = AXIS2_PLACEMENT_3D ( 'NONE', #330, #68, #725 ) ;
#743 = ORIENTED_EDGE ( 'NONE', *, *, #554, .T. ) ;
#744 = EDGE_CURVE ( 'NONE', #249, #580, #701, .T. ) ;
#745 = CARTESIAN_POINT ( 'NONE',  ( -35.50000000000001421, 5.000000000000000000, -8.673617379884035472E-16 ) ) ;
#746 = VERTEX_POINT ( 'NONE', #687 ) ;
#747 = CARTESIAN_POINT ( 'NONE',  ( 35.50000000000000711, 5.000000000000000000, -4.500000000000000888 ) ) ;
#748 = DIRECTION ( 'NONE',  ( 0.000000000000000000, 0.000000000000000000, -1.000000000000000000 ) ) ;
#749 = EDGE_CURVE ( 'NONE', #638, #715, #379, .T. ) ;
#750 = CIRCLE ( 'NONE', #162, 4.500000000000000000 ) ;
#751 = VERTEX_POINT ( 'NONE', #154 ) ;
#752 = CARTESIAN_POINT ( 'NONE',  ( -65.00000000000000000, 5.000000000000000000, 4.499999999999999112 ) ) ;
#753 = FACE_OUTER_BOUND ( 'NONE', #647, .T. ) ;
#754 = DIRECTION ( 'NONE',  ( 0.000000000000000000, 0.000000000000000000, 1.000000000000000000 ) ) ;
#755 = CYLINDRICAL_SURFACE ( 'NONE', #307, 3.100000000000002309 ) ;
#756 = ORIENTED_EDGE ( 'NONE', *, *, #281, .T. ) ;
#757 = EDGE_CURVE ( 'NONE', #598, #746, #93, .T. ) ;
#758 = ORIENTED_EDGE ( 'NONE', *, *, #92, .F. ) ;
#759 = DIRECTION ( 'NONE',  ( 0.000000000000000000, 0.000000000000000000, -1.000000000000000000 ) ) ;
#760 = VERTEX_POINT ( 'NONE', #341 ) ;
#761 = EDGE_CURVE ( 'NONE', #775, #166, #596, .T. ) ;
#762 = EDGE_LOOP ( 'NONE', ( #44, #634, #258, #21 ) ) ;
#763 = LINE ( 'NONE', #699, #350 ) ;
#764 = LINE ( 'NONE', #646, #630 ) ;
#765 = EDGE_LOOP ( 'NONE', ( #79, #645, #637, #411 ) ) ;
#766 = DIRECTION ( 'NONE',  ( -0.000000000000000000, -1.000000000000000000, -0.000000000000000000 ) ) ;
#767 = FACE_OUTER_BOUND ( 'NONE', #765, .T. ) ;
#768 = AXIS2_PLACEMENT_3D ( 'NONE', #565, #193, #669 ) ;
#769 = CIRCLE ( 'NONE', #272, 4.500000000000000000 ) ;
#770 = EDGE_CURVE ( 'NONE', #428, #393, #66, .T. ) ;
#771 = DIRECTION ( 'NONE',  ( -0.000000000000000000, -1.000000000000000000, -0.000000000000000000 ) ) ;
#772 = ORIENTED_EDGE ( 'NONE', *, *, #343, .T. ) ;
#773 = FACE_OUTER_BOUND ( 'NONE', #588, .T. ) ;
#774 = DIRECTION ( 'NONE',  ( 0.000000000000000000, 1.000000000000000000, 0.000000000000000000 ) ) ;
#775 = VERTEX_POINT ( 'NONE', #589 ) ;
ENDSEC;
END-ISO-10303-21;
